# xmcd
#
# Track frame offsets: 
#        150
#        12647
#        24655
#        37885
#        47222
#        57807
#        70020
#        81590
#        99447
#        111970
#        125645
#        136335
#        147985
#        160640
#        172875
#        183857
#        198435
#        209520
#
# Disc length: 2974 seconds
#
# Revision: 2
# Processed by: cddbd v1.5.2PL0 Copyright (c) Steve Scherf et al.
# Submitted via: ExactAudioCopy v1.0b3
#
DISCID=fd0b9c12
DTITLE=Various Artist - Classic Country Duets
DYEAR=1998
DGENRE=Country
TTITLE0=Johnny Cash and June Carter Cash - Jackson
TTITLE1=George Jones and Melba Montgomery - We Must Have Been Out Of Our
TTITLE1=Minds
TTITLE2=Del Reeves and Billy Jo Spears - On The Rebound
TTITLE3=Glenn Campbell and Bobbie Gentry - Let It Be Me
TTITLE4=Jonie and Johnny Mosby - Just Hold My Hand
TTITLE5=Willie Nelson and Shirley Collie - Willingly
TTITLE6=Jean Shepard and Ray Pillow - I'll Take The Dog
TTITLE7=Waylon Jennings and Jessi Colter - Suspicious Minds
TTITLE8=Bill Anderson and Jan Howard - For Loving You
TTITLE9=Kenny Rogers and Dottie West - Every Time Two Fools Collide
TTITLE10=Charlie Louvin &melba Montgomery - Something To Brag About
TTITLE11=Bobbie Gentry and Glenn Campbell - All I Have To Do Is Dream
TTITLE12=Porter Wagoner and Dolly Parton - Please Don't Stop Loving Me
TTITLE13=Del Reeves and Penny Dehaven - Land Mark Tavern
TTITLE14=Loretta Lynn and Conway Twitty - Lead Me On
TTITLE15=Charlie Rich and Janie Fricke - On My Knees
TTITLE16=Buck Owens and Susan Raye - Looking Back To See
TTITLE17=Dottie West and Kenny Rogers - What Are We Doin' In Love
EXTD=
EXTT0=
EXTT1=
EXTT2=
EXTT3=
EXTT4=
EXTT5=
EXTT6=
EXTT7=
EXTT8=
EXTT9=
EXTT10=
EXTT11=
EXTT12=
EXTT13=
EXTT14=
EXTT15=
EXTT16=
EXTT17=
PLAYORDER=
